HIERARCHY
ROOT Hips
{
	OFFSET -0.001795 -0.223333 0.028219
	CHANNELS 6 Xposition Yposition Zposition Zrotation Yrotation Xrotation 
	JOINT LeftUpLeg
	{
		OFFSET 0.069520 -0.091406 -0.006815
		CHANNELS 3 Zrotation Yrotation Xrotation
		JOINT LeftLeg
		{
			OFFSET 0.034277 -0.375199 -0.004496
			CHANNELS 3 Zrotation Yrotation Xrotation
			JOINT LeftFoot
			{
				OFFSET -0.013596 -0.397961 -0.043693
				CHANNELS 3 Zrotation Yrotation Xrotation
				JOINT LeftToe
				{
					OFFSET 0.026358 -0.055791 0.119288
					CHANNELS 3 Zrotation Yrotation Xrotation
					End Site
					{
						OFFSET 0.000000 0.000000 0.000000
					}
				}
			}
		}
	}
	JOINT RightUpLeg
	{
		OFFSET -0.067670 -0.090522 -0.004320
		CHANNELS 3 Zrotation Yrotation Xrotation
		JOINT RightLeg
		{
			OFFSET -0.038290 -0.382569 -0.008850
			CHANNELS 3 Zrotation Yrotation Xrotation
			JOINT RightFoot
			{
				OFFSET 0.015774 -0.398415 -0.042312
				CHANNELS 3 Zrotation Yrotation Xrotation
				JOINT RightToe
				{
					OFFSET -0.025372 -0.048144 0.123348
					CHANNELS 3 Zrotation Yrotation Xrotation
					End Site
					{
						OFFSET 0.000000 0.000000 0.000000
					}
				}
			}
		}
	}
	JOINT Spine
	{
		OFFSET -0.002533 0.108963 -0.026696
		CHANNELS 3 Zrotation Yrotation Xrotation
		JOINT Spine1
		{
			OFFSET 0.005487 0.135180 0.001092
			CHANNELS 3 Zrotation Yrotation Xrotation
			JOINT Spine2
			{
				OFFSET 0.001457 0.052922 0.025425
				CHANNELS 3 Zrotation Yrotation Xrotation
				JOINT Neck
				{
					OFFSET -0.002778 0.213870 -0.042857
					CHANNELS 3 Zrotation Yrotation Xrotation
					JOINT Head
					{
						OFFSET 0.005152 0.064970 0.051349
						CHANNELS 3 Zrotation Yrotation Xrotation
						End Site
						{
							OFFSET 0.000000 0.000000 0.000000
						}
					}
				}
				JOINT LeftShoulder
				{
					OFFSET 0.078845 0.121749 -0.034090
					CHANNELS 3 Zrotation Yrotation Xrotation
					JOINT LeftArm
					{
						OFFSET 0.090977 0.030469 -0.008868
						CHANNELS 3 Zrotation Yrotation Xrotation
						JOINT LeftForeArm
						{
							OFFSET 0.259612 -0.012772 -0.027456
							CHANNELS 3 Zrotation Yrotation Xrotation
							JOINT LeftHand
							{
								OFFSET 0.249234 0.008986 -0.001171
								CHANNELS 3 Zrotation Yrotation Xrotation
								End Site
								{
									OFFSET 0.000000 0.000000 0.000000
								}
							}
						}
					}
				}
				JOINT RightShoulder
				{
					OFFSET -0.081759 0.118833 -0.038615
					CHANNELS 3 Zrotation Yrotation Xrotation
					JOINT RightArm
					{
						OFFSET -0.096012 0.032551 -0.009143
						CHANNELS 3 Zrotation Yrotation Xrotation
						JOINT RightForeArm
						{
							OFFSET -0.253742 -0.013329 -0.021401
							CHANNELS 3 Zrotation Yrotation Xrotation
							JOINT RightHand
							{
								OFFSET -0.255298 0.007772 -0.005559
								CHANNELS 3 Zrotation Yrotation Xrotation
								End Site
								{
									OFFSET 0.000000 0.000000 0.000000
								}
							}
						}
					}
				}
			}
		}
	}
}
MOTION
Frames: 14
Frame Time: 0.050000
0.103348 0.885755 -2.256166 -1.135474 -0.698474 14.463977 3.925337 -2.313686 -41.293167 -8.210535 3.582092 53.401877 11.460914 23.380389 2.497922 0.000000 0.000000 0.000000 -0.793492 4.831285 -47.914821 11.129032 -3.205154 33.972820 -13.002508 -28.913064 12.706199 0.000000 0.000000 0.000000 -4.824513 0.426733 57.450784 8.795711 -0.448547 -32.637655 2.710429 3.290608 25.100698 -0.463617 2.898952 -45.826705 0.000000 0.000000 0.000000 -36.878845 -13.606712 6.237271 -38.153453 -14.601635 -1.479117 3.869996 -39.729453 0.459356 0.000000 0.000000 0.000000 21.422271 19.421276 10.985091 47.422403 13.658802 -1.299319 -7.575974 45.304455 -0.661270 0.000000 0.000000 0.000000 
0.108954 0.883336 -2.281070 -1.341317 -1.141186 15.002149 3.376045 -2.468679 -42.272222 -7.400057 3.148141 53.004570 11.349138 23.266655 1.182304 0.000000 0.000000 0.000000 -1.781806 4.754992 -49.857707 11.983273 -3.474702 33.386731 -12.267199 -27.630173 13.636054 0.000000 0.000000 0.000000 -4.825111 0.577480 57.485120 8.368681 -0.354666 -32.939319 2.648622 3.036334 24.662575 -0.462922 2.855072 -45.920049 0.000000 0.000000 0.000000 -36.293234 -13.053428 5.979588 -38.785271 -14.173549 -1.611258 3.210760 -39.743286 0.712350 0.000000 0.000000 0.000000 20.601048 19.410992 10.711999 48.732896 13.027459 -1.414277 -7.701711 46.434097 -0.732119 0.000000 0.000000 0.000000 
0.114927 0.881484 -2.305308 -1.372522 -1.450530 14.885690 2.909297 -2.572435 -42.207112 -7.417614 3.212192 52.644668 11.568929 23.711789 0.561624 0.000000 0.000000 0.000000 -2.381423 4.708417 -51.045494 12.334991 -3.579283 33.222692 -11.829596 -26.877725 13.984379 0.000000 0.000000 0.000000 -4.901612 0.730027 58.013592 8.350832 -0.281340 -33.727462 2.627750 2.826418 24.936903 -0.724950 2.926555 -46.525779 0.000000 0.000000 0.000000 -36.777759 -12.622556 5.821499 -38.513254 -14.164560 -1.670312 2.816433 -39.644602 0.872752 0.000000 0.000000 0.000000 19.837996 19.359412 10.475006 49.928378 12.755055 -1.514042 -7.571245 46.380535 -0.664419 0.000000 0.000000 0.000000 
0.121427 0.879376 -2.329897 -1.438940 -2.344305 14.618967 2.715627 -2.469512 -42.021123 -8.081801 3.824765 51.827937 11.777677 24.175170 -0.585061 0.000000 0.000000 0.000000 -2.690019 4.911771 -51.997083 12.285237 -3.419253 32.732312 -11.269292 -25.976076 14.684294 0.000000 0.000000 0.000000 -5.273710 1.252033 58.036624 8.522660 -0.339013 -33.454980 2.136367 2.993428 24.748992 0.245754 2.594667 -46.107606 0.000000 0.000000 0.000000 -35.928365 -12.347358 5.636152 -39.283274 -14.103454 -1.713580 2.940078 -39.625077 0.842686 0.000000 0.000000 0.000000 19.923159 19.036328 10.274019 50.490171 12.400840 -1.646175 -7.658806 46.818289 -0.691007 0.000000 0.000000 0.000000 
0.128705 0.878617 -2.355822 -1.554532 -2.703352 14.497997 2.370143 -2.486666 -41.254298 -8.192262 3.850157 50.066732 11.611707 23.890567 -0.979336 0.000000 0.000000 0.000000 -3.080805 4.914287 -52.672596 11.748812 -3.095961 31.583329 -10.068411 -23.968665 15.665738 0.000000 0.000000 0.000000 -5.762384 1.632778 57.259600 8.765320 -0.360645 -33.550708 2.076926 2.859452 25.125458 0.507437 2.474308 -46.079942 0.000000 0.000000 0.000000 -36.617498 -12.063188 5.586237 -38.594806 -13.675557 -1.904697 3.867031 -40.128727 0.541601 0.000000 0.000000 0.000000 20.350841 18.755416 10.122749 50.372924 11.749211 -1.967185 -6.832024 46.652880 -0.366033 0.000000 0.000000 0.000000 
0.137210 0.879791 -2.384005 -1.406844 -3.274175 14.061013 1.460571 -2.669197 -40.576015 -8.190011 3.785468 47.695287 11.665639 24.131732 -2.431487 0.000000 0.000000 0.000000 -3.663376 4.913714 -53.619091 10.663310 -2.555430 30.258960 -8.834015 -21.926744 19.847161 0.000000 0.000000 0.000000 -6.089453 1.993709 57.068217 9.367662 -0.543523 -32.683575 1.472796 2.780632 24.737983 0.476273 2.412013 -44.628243 0.000000 0.000000 0.000000 -35.872792 -12.130951 5.743606 -39.534499 -13.812607 -1.899974 4.900373 -41.387749 0.210714 0.000000 0.000000 0.000000 19.996627 18.438891 9.792936 51.121677 11.125131 -2.195310 -6.382508 46.612233 -0.194087 0.000000 0.000000 0.000000 
0.146754 0.883041 -2.415515 -1.468766 -4.051241 14.041370 1.307982 -2.591090 -40.584286 -8.328072 3.958030 46.636966 11.430871 23.661985 -2.576680 0.000000 0.000000 0.000000 -3.519278 5.249017 -54.072954 9.115416 -1.831654 27.975506 -7.495575 -20.047444 22.531371 0.000000 0.000000 0.000000 -6.922560 2.743282 57.175048 10.981705 -0.728433 -33.093870 1.097358 3.511921 24.791213 0.042241 2.609129 -44.218209 0.000000 0.000000 0.000000 -35.652641 -12.090664 5.456580 -39.769420 -13.926814 -1.816557 5.447235 -42.701719 -0.006288 0.000000 0.000000 0.000000 20.295596 18.171560 9.839883 50.893333 10.887552 -2.334322 -6.176817 46.340526 -0.066805 0.000000 0.000000 0.000000 
0.156631 0.888372 -2.449891 -1.426710 -4.347079 13.565221 0.508408 -2.830127 -40.801681 -7.818897 3.573554 45.020809 11.986443 24.821253 -2.905494 0.000000 0.000000 0.000000 -3.540663 5.384482 -54.585557 7.226509 -1.122516 25.908328 -7.090761 -19.687695 28.871569 0.000000 0.000000 0.000000 -7.173121 2.952637 56.892002 11.169305 -0.922994 -31.815284 1.591910 2.486714 24.011650 -2.189730 3.230533 -42.894790 0.000000 0.000000 0.000000 -37.143530 -11.821303 5.866211 -38.345522 -14.347681 -1.778519 7.237093 -43.650703 -0.641150 0.000000 0.000000 0.000000 19.957552 18.616272 9.660097 50.129665 9.753886 -2.654704 -5.458638 46.660458 0.051115 0.000000 0.000000 0.000000 
0.165179 0.894151 -2.485361 -2.128675 -5.307123 13.410117 0.664846 -2.643292 -41.618906 -7.204100 3.347166 44.057497 12.371538 25.477633 -2.235043 0.000000 0.000000 0.000000 -4.677606 5.391870 -56.452364 9.064366 -1.716354 27.245660 -6.787868 -19.477317 31.282977 0.000000 0.000000 0.000000 -8.192390 3.871024 56.929224 13.858692 -1.384579 -31.470296 1.095123 4.049825 24.388625 -2.345621 3.435687 -41.504009 0.000000 0.000000 0.000000 -38.048121 -12.262061 5.584536 -36.880270 -14.786943 -1.512699 7.104336 -43.343719 -0.679991 0.000000 0.000000 0.000000 19.457602 18.727444 10.026395 50.009003 10.444445 -2.488799 -4.656078 46.397088 0.504035 0.000000 0.000000 0.000000 
0.171506 0.900601 -2.519608 -3.081193 -6.385389 13.545717 1.193112 -2.279338 -42.527793 -6.489407 2.990355 41.821887 12.194209 24.916782 -1.032114 0.000000 0.000000 0.000000 -6.321687 5.170939 -58.180071 13.093343 -3.463239 34.089797 -8.492527 -21.711582 27.708299 0.000000 0.000000 0.000000 -8.532854 4.425746 56.896859 14.356124 -1.549317 -30.890567 1.662183 4.573294 24.568613 -4.995925 4.454090 -40.933030 0.000000 0.000000 0.000000 -38.558605 -12.460533 5.715807 -36.077173 -15.487327 -1.341416 8.249760 -43.202898 -1.112757 0.000000 0.000000 0.000000 19.803677 18.411943 9.969658 48.677412 10.365757 -2.559620 -2.838392 47.317842 1.288356 0.000000 0.000000 0.000000 
0.175676 0.907203 -2.551825 -3.145001 -5.509403 13.324926 1.559890 -2.329752 -43.116539 -6.425783 2.657065 39.992047 11.819654 24.007450 0.706903 0.000000 0.000000 0.000000 -7.329478 4.426295 -58.545104 16.166823 -5.859411 44.051129 -13.238156 -27.396705 29.491726 0.000000 0.000000 0.000000 -7.590136 3.634893 57.674351 14.088954 -1.621410 -30.243684 1.667249 3.971597 23.807861 -4.955886 4.418704 -38.690380 0.000000 0.000000 0.000000 -38.551903 -12.719515 6.060492 -36.236978 -15.581798 -1.283581 8.801783 -42.873012 -1.318773 0.000000 0.000000 0.000000 18.687529 19.220680 10.116567 49.595230 9.983983 -2.599367 -3.829689 48.129529 0.852961 0.000000 0.000000 0.000000 
0.178137 0.913268 -2.582118 -3.030467 -4.841998 13.607423 2.115932 -2.272311 -43.806988 -6.697047 2.541726 37.974287 10.845963 22.037428 2.986584 0.000000 0.000000 0.000000 -7.735193 3.817808 -56.414542 18.359486 -8.422836 53.593227 -16.814653 -30.631875 33.814929 0.000000 0.000000 0.000000 -7.250482 3.210775 57.697949 14.144695 -1.552745 -30.638430 1.227017 4.243089 24.589469 -5.180021 4.567227 -39.564511 0.000000 0.000000 0.000000 -38.811465 -13.150508 6.185097 -36.372378 -16.082004 -1.136216 9.032707 -41.507875 -1.370193 0.000000 0.000000 0.000000 19.277929 18.748435 10.116542 49.929428 10.715168 -2.430862 -5.346587 48.266993 0.312607 0.000000 0.000000 0.000000 
0.179390 0.915559 -2.610684 -2.632989 -4.952812 14.155158 2.441899 -2.176990 -45.314708 -7.470040 2.782984 36.135370 10.623914 21.482844 5.698859 0.000000 0.000000 0.000000 -7.366374 3.774749 -53.666271 19.189941 -10.423629 63.249898 -16.357536 -29.988928 33.172183 0.000000 0.000000 0.000000 -7.458742 3.378578 57.512524 13.460598 -1.370602 -31.052243 1.265199 3.592091 25.154355 -4.572187 4.232265 -39.438181 0.000000 0.000000 0.000000 -38.445658 -12.731425 6.211986 -37.117405 -15.383808 -1.444542 8.209720 -41.565156 -1.020602 0.000000 0.000000 0.000000 19.407288 18.411495 9.788120 50.080481 10.522707 -2.528493 -4.470701 48.839165 0.665328 0.000000 0.000000 0.000000 
0.179582 0.916203 -2.638460 -2.368547 -5.435182 14.940107 2.767024 -1.958031 -45.992961 -7.896053 2.817941 33.157670 10.508933 21.184509 7.086497 0.000000 0.000000 0.000000 -6.600138 3.871460 -49.816745 20.158124 -12.017564 69.441043 -14.639097 -28.037528 32.095352 0.000000 0.000000 0.000000 -7.767047 3.684909 56.750557 12.405013 -1.209194 -30.908998 1.461942 2.987178 24.704674 -4.540485 4.100145 -39.947164 0.000000 0.000000 0.000000 -38.578602 -11.742304 5.792782 -38.275225 -15.349023 -1.495558 7.245273 -40.744929 -0.587150 0.000000 0.000000 0.000000 19.688780 18.663156 9.756275 50.864927 11.215661 -2.152925 -4.165341 46.844323 0.667868 0.000000 0.000000 0.000000 
